<svg version="1" xmlns="http://www.w3.org/2000/svg" width="1222.667" height="1222.667" viewBox="0 0 917.000000 917.000000"><path d="M876.3 315.6c-6.5 3.2-6.7 4.3-6.8 31.1-.1 13.3-.3 24.5-.6 24.7-.3.3-2.3-1-4.4-2.9-2.2-2-6.9-5-10.4-6.7-5.3-2.7-7.8-3.3-15-3.6-26.2-1.2-43.9 11-51.7 35.8-2.5 8.1-3.2 41.6-1 52 4.5 21.3 19.4 36.6 40.4 41.4 8.1 1.8 24.4 1.8 32.4 0 19.3-4.4 32.3-17.2 37.5-36.6 1.5-5.5 1.7-13.6 1.7-67.3.1-57.1 0-61.2-1.7-63.7-3.7-5.4-13.7-7.5-20.4-4.2zm-20.5 72.3c10.6 5.4 13.5 12.4 13.6 33.1.2 25.3-1.8 31.4-12.4 37.4-4.9 2.7-6.4 3.1-13.5 3-9.9 0-17-2.8-22-8.7-5.5-6.4-6.8-12-6.8-28.7.1-18.4.8-22.1 5.9-28.7 2.8-3.6 9.9-8.2 14.7-9.4 5.1-1.2 16.4-.1 20.5 2zM730.4 317.4c-1.7.7-4 2.6-5.2 4.1l-2.2 2.8v77.9c0 77.4 0 78 2.1 80.9 3.2 4.5 7.3 6.2 13.9 5.7 5.9-.4 9.9-2.6 12.1-6.5 1.7-3.2 2-154.6.3-158.3-2.4-5.1-6-7.4-12.2-7.7-3.4-.2-6.9.2-8.8 1.1zM281.7 324.4c-2.1.8-4.8 2.2-5.9 3.3-2.6 2.3-4.9 7.5-4.3 9.9 3.4 16.2 6.6 30.8 7.4 34.4.5 2.5 1.2 5.8 1.5 7.5.3 1.6 1.2 5.9 2 9.5 2.9 13.1 6.8 31.6 7.2 33.5.2 1.1 1.5 7.2 2.9 13.5s2.8 13.1 3.1 15c.3 1.9.8 3.8 1 4.1.2.3.6 2.1.9 4 2 11.4 4.7 21.4 6.5 23.9 5.9 8.2 22.6 7.7 28.6-.9 1-1.4 15.6-53.8 17.9-64.3.2-1 2.4-9.3 4.8-18.5 2.5-9.3 4.8-18.3 5.2-20.2.8-3.7 1.9-2.9 2.9 2 2.6 12.6 26.8 99.7 28.3 101.8 5.4 7.3 19.5 8.1 26.5 1.6 3.4-3.1 5.8-12.1 12.2-45 .2-1.1.9-4 1.5-6.5s2.7-12.2 4.6-21.5c2-9.4 6.3-29.4 9.5-44.6 3.3-15.1 6-28.8 6-30.5 0-11.9-18.2-17.6-26.7-8.3-2 2.3-3.7 10.9-11.3 58.9-.5 3.6-1.2 7.6-1.5 9-.2 1.3-.7 4.2-1 6.5-.3 2.2-1 6.2-1.5 9-.5 2.7-1.2 6.3-1.4 8-.3 1.6-1.2 7.3-2.1 12.5-.8 5.2-1.5 9.9-1.5 10.5-.1 1.6-1.8-1.9-2.4-4.6-.6-3.1-7.4-31.4-8.6-35.9-1-3.5-6.9-27.2-7.5-30-2.6-12.1-9.8-38.7-11.4-41.8-5.1-9.9-21.5-9.6-27 .5-.8 1.6-10.9 40.2-12.5 47.8-1.3 6.3-16.1 64.4-16.3 64.1-.4-.4-1.1-3.8-1.8-8.6-.3-1.9-1.2-7.6-2-12.5-.9-5-1.8-10.6-2.1-12.5-.3-1.9-2.9-18.2-6-36.2-3-18-5.7-34.6-6-36.9-.4-2.4-1.3-5.3-2.1-6.5-3.4-5.3-11.1-7.4-17.6-5zM56.6 359.6c-21 5.1-36.6 21.5-41.2 43.6-1.7 7.8-2.3 35.8-1 43.5.4 2.4.8 4.6.8 5 .1.5.9 3.2 1.9 6.2 5.4 15.5 16.1 25.5 31.5 29.6 7 1.9 21.7 1.8 27.9-.1 7.4-2.2 17.5-9.6 17.5-12.9 0-.6.4-.4.9.3 1 1.7.4 18.3-.9 23.2-1.6 6-5.1 10.3-10.5 13-4.3 2.1-6.3 2.4-15 2.4-5.5 0-13.6-.4-18-.9-6.7-.6-8.6-.5-11.3.9-10.5 5.4-6.9 21 5.7 24.6 5.9 1.7 28.9 2.4 36.3 1.1 21.4-3.7 37.1-17.9 41.9-37.6 1.8-7.3 2-99.7.2-108.2-3.6-17.8-16-29.8-35-33.8-8.5-1.8-24-1.8-31.7.1zm28.5 28.1c5.6 2.5 8.8 6.7 9.7 13 1 6.1.8 36.5-.2 41.8-2.1 11-11.1 18.3-23.5 19-12.4.7-20.3-3.1-24.7-12.1-2.6-5.3-2.8-6.5-3-20.2-.3-23 2.6-30.9 14.8-40.1 5.7-4.3 18.8-5 26.9-1.4zM194.3 359.5c-14 3.4-25.4 11.7-31.5 23.2-5.7 10.6-7 17.8-7 39.3-.1 20.6.4 25.7 3.3 34.4 5.2 15.3 15.8 25.2 32.1 30.1 7.4 2.1 9.8 2.4 21.8 2.1 14.2-.3 22.3-2.2 29.8-6.8 10.9-6.7 11.9-19.8 1.9-24.9-4.6-2.4-6.9-2.2-16.7 1.8-9 3.6-22.3 3.9-29.1.5-5.6-2.7-10.4-9.1-12.3-16.4-1.4-5.3-1.5-32.2-.2-37.9 1.9-8.2 7.1-14.9 13.5-17.6 4.5-1.9 14.6-2.5 19.5-1.2 2.1.6 6.2 2.1 9 3.4 7.7 3.5 11.8 4 16.1 1.9 4.3-2 6.2-4.6 7-9.7 1.5-8.9-5.2-15.9-19.7-20.8-6.7-2.3-9.5-2.6-20-2.6-6.8 0-14.6.5-17.5 1.2zM513.8 359.5c-12.7 3.1-25 11.6-31.2 21.4-3.2 5-7.2 16.5-8.1 23.1-.4 3-.7 12.9-.7 22 .1 24.9 3.5 35.4 15.2 47.1 10.1 10.2 20.2 14 38.5 14.5 21.1.6 33.5-3.6 44.9-15 11.6-11.6 14.8-22 14.8-48.6.1-20.7-1.5-29.1-7.4-40.1-5.4-10.2-18.4-20.6-29.3-23.4-1.6-.5-3.7-1-4.5-1.3-4-1.2-26.9-.9-32.2.3zm28.5 26.8c5.5 2.3 11.2 8.7 13.3 14.8 1.5 4.4 1.8 8.5 1.8 22.9 0 16.1-.2 17.9-2.3 22.8-4.4 9.9-12.1 14.5-24.6 14.6-14.4.1-22.5-6-26-19.4-1.7-6.3-1.3-34.2.5-39.5 4.3-12.8 13.1-18.7 27.1-18 3.6.2 8.2 1 10.2 1.8zM654.1 359.6c-18.2 4-29.7 15.6-33.6 33.9-1.9 9.4-1.9 84.8 0 88.6 4.4 8.5 21 9.2 26.3 1.1 1.5-2.2 1.7-7.2 1.7-43.2l.1-40.6 2.5-4.9c3.7-7.6 7.3-9 23.4-9.1 17.4-.2 16.9-.2 19.2-2.2 4.2-3.7 4.9-12.3 1.4-17.2-1-1.4-4-3.6-6.7-5-4.3-2.2-6.2-2.5-16.4-2.6-6.6-.1-14.2.4-17.9 1.2zM546.5 527.8c-6.8 4.2-14 18.2-20.4 39.2-2.3 7.4-4.5 14.5-5.1 15.7-1.9 4.5-13.1 7.6-16.3 4.4-1-1-.3-6.5 1.6-11.1 2.8-7.2 6.5-20.3 6.1-21.4-.7-1.9-4.1-2.4-7.6-1.3-3 1-3.2 1.6-10.8 28.7-1 3.9-6.7 7.2-11.4 6.7-5.3-.6-6.2-2.7-4-9.9.3-.9.7-2.5.9-3.6.5-2.9 9.9-27.6 13.9-36.7 3.5-7.8 3.5-8 1.7-9.6-1.6-1.3-4.1-1.6-8.3-1-.5.1-1.9 3.3-7.7 17.6-3.5 8.6-4.2 9.6-6 9-6.9-2.1-17.7 1.7-23.1 8.3-3.3 4-6.6 11.9-7.6 18.1-1.2 7.8 3.1 14.1 9.8 14.1 3.1 0 8.6-3.4 12.9-8.1 1.9-2.1 3.7-3.9 4-3.9.2 0 .3 1.7.1 3.7-.2 3.1.2 4.1 2.2 5.6 4.4 3.1 16.5 2.3 21.8-1.4 2.2-1.6 2.8-1.7 3.5-.6.4.8 1.7 1.9 2.9 2.5 2.3 1.2 14.8 1 17.8-.3 1.6-.7 1.8-.5 1.2 1.1-1.1 2.9-2 9.4-2 14.8.1 3.9.5 5.3 2.3 6.8 4.5 3.6 12.8 1.5 17.2-4.3 2.6-3.4 5.9-11.8 5.9-14.9 0-1.3 1-1.7 4.3-1.8 5.9-.2 6.8-.5 11.2-3.1 3.3-1.9 4.1-2 5-.8 1.8 2.5 4.9 3.5 11.2 3.5 6.2 0 14.3-2.8 14.3-5 0-.5 1.3 0 2.9 1.2 7.2 5.1 20.3 6.5 27.4 2.8 3.8-1.9 3.8-1.9 6.4.2 4.8 3.8 12.2 1.7 18.8-5.5l4.1-4.3-.4 3.3c-.8 6.7 5.8 9.1 18.8 7 1.3-.3 3.7-1.4 5.3-2.6l2.8-2.1 2.4 2.6c4 4.3 15.2 4.7 21.8.9 3.2-2 3.3-2 6.7-.1 4.8 2.7 15.3 2 20.5-1.2l3.6-2.2 2.9 2.7c5.4 5.2 16.2 4.2 22.6-2.1 7.2-7.3 11.7-22.4 8.5-28.6-1.9-3.8-5-5.1-8.2-3.4-2 1-2.4 1.9-2.3 5.5 0 2.4.7 4.6 1.4 5.1 2.6 1.6-1.8 14.7-6.2 18.6-1.3 1.1-3.5 2.1-5 2.3-8.7.8-3.7-17.4 8.1-29.7 1.8-1.8 2.9-3.7 2.6-4.2-1.1-1.8-5.7-1-10.7 1.7-7.1 3.9-11.3 9.7-13.4 19-1.7 7.2-2.1 7.8-6.2 10.4-3.3 2.1-5.2 2.6-7.9 2.3-6.7-.8-6.7-1.1-.8-18.9 2.4-7.4 4.2-14.1 3.9-14.9-.6-1.7-4-2.4-7.4-1.6-2.8.7-4.1 3.8-8.9 22-2.1 7.9-3.3 10.8-5.2 12.2-3.3 2.4-6.9 2.8-10.2 1.1-2.6-1.3-2.8-1.9-2.4-5.1.3-2 1.6-7.3 2.9-11.7l2.4-8 3.9-.3c6.9-.5 8.6-6.2 1.9-6.2-1.9 0-3.4-.3-3.4-.8 0-.4 1.2-4.1 2.6-8.2 3.6-10.6 3.6-12.4 0-12.8-6-.7-7.3.3-9.5 7.5-1.1 3.8-2.3 8-2.7 9.6-.5 2.3-4.4 6-4.4 4.2 0-1.4-3.8 1.6-4.3 3.4-.5 2 1.6 3.6 3.3 2.6 1.5-.9 2 1.2 1 4.1-.5 1.6-1.8 6.2-3 10.1-1.9 6.7-2.4 7.5-6.4 9.8-5.1 3-8.9 3.2-11.6.5-1.9-1.9-1.9-2 .6-8.7 1.4-3.7 4.1-10.3 6.1-14.7 2.8-6.3 3.3-8 2.2-8.7-.8-.5-1.9-.9-2.6-.9-.6 0-1.8-.3-2.6-.6-.9-.3-2.5.4-3.6 1.5-1.8 1.8-2.4 1.9-5.8.7-4.6-1.6-11-.5-16.7 2.8-7.3 4.3-12 11.5-13.8 21.1-1.1 5.7-1.6 6.5-4.5 7.9-9.6 4.5-19.8-1-19.5-10.4.2-5.1 2.5-10.6 5.4-13 3.1-2.6 7.4-2.6 8.8 0 1.9 3.5 5.6 2.2 6.4-2.2.8-4.4-2-6.8-8.4-7.5-13-1.3-23.2 9.7-23.1 25 0 5.6-.1 5.7-3.7 7.5-5.6 2.8-12.2 1.7-12.2-1.9 0-1.1 1.8-7.5 4.1-14.2 5-15.2 5.2-16.9 1.9-17.7-4.1-1-7.1.1-8.2 2.9-1.4 3.6-4.7 14.5-6.3 20.9-.7 2.9-2.1 6.2-3.1 7.3-2.7 3-7.8 5.1-11 4.5-1.6-.2-3.4-.5-4.1-.5-.6-.1-1.4-.9-1.7-1.9-.4-1-1.5-2.8-2.6-4l-2-2.1 5.9-5.8c7.7-7.7 13.2-16.4 16.2-25.5 3.1-9.4 3.2-17 .3-19.8-3-3-9.1-3.6-12.9-1.2zm7.5 10.5c0 2.3-7.9 20.7-8.9 20.7-.3 0-1.2 1.2-1.9 2.7-.6 1.6-2.8 4.6-4.7 6.8-3.4 3.9-3.4 4-2.5 1 .9-3.1 7.8-22.5 10-28 1.8-4.6 5-7.7 6.7-6.4.7.6 1.3 2 1.3 3.2zm-82 26.3c-2.4 6.1-7.9 15.2-11.7 19.2-3.6 3.8-4.4 4.2-6.2 3.2-3.4-1.8-2.2-7.7 3.2-16.1 5.2-8.1 17.3-13.2 14.7-6.3zm179.6-1.2c1.4 3.7-13.1 24.6-17 24.6-7.5-.1-3-16.1 6.5-22.5 4.9-3.3 9.7-4.3 10.5-2.1zm-118.2 28.5c2 2.2 1.6 6.2-1.4 12.2-2.5 4.7-4.4 6.3-5.7 4.7-1.1-1.4 3.3-18.8 4.7-18.8.4 0 1.5.9 2.4 1.9zM313.5 528.7c-4.3 1.1-10.3 6.4-12.5 10.8-5.4 11.2-2.5 25.5 4.7 22.8 2.8-1 3.3-2.5 1.7-4.7-2.7-3.8-1.1-13.5 2.9-18.2 2.8-3.2 9.6-4.4 11.6-2 3.2 3.8-.4 18.8-10.5 43.9-2.9 7.2-4.1 11.4-3.5 12 1.4 1.4 6.9 1.1 8.8-.5.8-.7 4.7-7.8 8.6-15.8 11.5-23.7 19.4-35.3 26.5-38.9 3.2-1.7 5.4.2 4.7 3.9-.8 4.4-7.1 20.2-14.5 36.5-6.8 15-6.9 15.3-1.5 15.6 5.6.4 6.8-.7 11.7-10.8 12.2-25.4 29.5-47.9 35.2-45.7 2.6 1 2 3.4-4.2 17.6-5.4 12.2-7.2 16.5-7.7 17.8-.1.3-.7 1.8-1.4 3.5-1.3 3-1.6 5.8-1.3 10.6.5 7.1 19.1 10 27.1 4.1 2.6-1.8 2.6-1.8 4.6.1 6.4 6.1 18.8 4.2 24.9-3.8 6.8-8.9 9.8-22.4 6.3-27.9-1-1.4-2.1-2.6-2.5-2.7-.4 0-1.5-.2-2.5-.4-4.6-.9-7.5 6.9-4 10.7 1.5 1.7 1.5 2.4.3 7.1-2.7 10.5-8.3 16.2-13.6 13.8-2.4-1-2.6-1.5-2.1-5.6.9-7 6.6-17.3 13.3-24 3.3-3.3 2.2-4.9-2.8-4.1-10.4 1.7-18.5 11.9-20.4 25.7-.5 3.6-1.3 4.9-3.8 6.7-6 4.1-14.9 2.3-14.8-2.9 0-1.3 3.7-11.2 8.2-21.9 4.5-10.7 8.4-21.2 8.7-23.3.8-5.8-1.2-9.5-5.4-10.3-8-1.5-15.3 3.6-27.8 19.6-3.2 4.1-6.2 7.9-6.7 8.5-.5.5.3-2.2 1.7-6 4.4-11.5 5.1-15.9 3.2-18.8-1.9-2.9-6.3-4.2-10.8-3.2-4.2.9-11.3 8.2-18.8 18.9-6.3 9.3-7.1 9.5-4.6 1.1 1.6-5.3 1.7-11.7.2-15.1-1.9-4.4-9.8-6.5-17.2-4.7z"/><path d="M511 530c-5.4 5.4.8 13.7 6.5 8.7 1.4-1.2 2.7-3.3 2.9-4.7.8-5.3-5.4-8-9.4-4zM577 530c-2.6 2.6-2.6 7.5.1 9.3 5.3 3.8 12.2-4.7 7.9-9.8-1.7-2.1-5.6-1.9-8 .5zM717 530c-2.2 2.2-2.7 6.9-.8 8.8 3.3 3.3 10.1-.2 10.1-5.3 0-5.3-5.4-7.4-9.3-3.5zM836.5 550.2c-3.4 2-4.4 4.1-3.8 8 .5 3.2-.1 4.6-5 12-10.7 15.9-19 21.6-24.9 16.8-2-1.6-2-1.6 1.6-11.4 4.5-11.8 5.7-17.7 4.2-19.8-4.3-5.8-11.9-3.6-20.5 5.7-2.3 2.5-4.3 4.5-4.5 4.5-.2 0 .5-2.9 1.7-6.5 1.1-3.5 1.8-6.8 1.4-7.2-.4-.3-2.3-.7-4.3-.8-2.6-.2-3.9.3-4.8 1.9-1.1 1.7-4.7 13.8-6.1 20.5-.2.9-1.1 4.7-2 8.6-2.5 10.3-2.5 10.3-1.1 11.4 1.6 1.3 7.6-.5 7.6-2.3 0-2.2 9.2-19.1 12.7-23.4 3.5-4.3 7.7-7.1 8.9-5.9.3.3-1.1 4.7-3.1 9.9-4.4 11.1-4.8 15.9-1.7 19.1 2 1.9 3.3 2.2 11.1 2.2 5.2 0 9.8-.5 11.2-1.3 2-1.1 3-1 6.2.7 2.8 1.4 5 1.8 9 1.4 5.6-.5 7.1-.5 16-.3 9.3.2 16.4-4.6 15-10.1-.5-1.9-.7-1.9-3.2.4-1.4 1.4-3.6 3-4.8 3.6-2.7 1.4-8 1.4-8.8.1-.3-.6-.2-1 .3-1 1.4 0 4.2-7.5 4.2-11.4 0-1.8-1.4-6.1-3.1-9.5-3.1-6.1-3.1-6.2-1.4-9.8 1.2-2.6 1.5-4.1.8-5.2-1.2-2-6.1-2.5-8.8-.9zm1.5 24.9c0 6.1-2.1 10.4-6 12.4-2.7 1.4-2.9 1.3-3.5-.4-.3-1.1-1.3-2.2-2.1-2.5-1.1-.4-.2-2.3 4.2-8.1 3.1-4.1 6-7.2 6.5-6.9.5.3.9 2.8.9 5.5z"/></svg>